<svg xmlns="http://www.w3.org/2000/svg" width="462.581" height="118.789" viewBox="0 0 462.581 118.789">
  <g id="Gruppe_347" data-name="Gruppe 347" transform="translate(-1356.157 -580)">
    <g id="Gruppe_346" data-name="Gruppe 346" transform="translate(-0.24 -8.382)">
      <path id="Pfad_223" data-name="Pfad 223" d="M6.53-44.315.24,7.981H8.084L9-3.4h4.382L14.3,7.981h8.268l-6.29-52.3Zm3.887,23.25.636-9.046h.212l.636,9.046.919,10.742H9.568Zm33,29.045L46.1-18.591l.495-6.5h.212l-.071,6.5V7.981H54.3v-52.3H44.055L41.44-17.6l-.495,5.866h-.212L40.168-17.6,37.554-44.315H27.236v52.3h7.138V-18.591l-.071-6.5h.141l.636,6.5L37.624,7.981Zm16.819,0h16.4V1.055H68.648V-14.987h7.138v-6.926H68.648V-37.389h7.986v-6.926h-16.4Zm40.776-42.26c0-6.855-3.392-10.6-9.682-10.6s-10.106,3.745-10.106,10.6V-27.5c0,4.876,1.625,7.35,4.664,10.176l4.17,3.745c2.191,1.979,2.827,2.615,2.827,5.512v6.784c0,2.12-.495,3.392-1.837,3.392S89.142.843,89.142-1.277V-12.089H81.227V-2.054c0,6.855,3.533,10.6,9.823,10.6,6.219,0,10.106-3.745,10.106-10.6V-8.273c0-5.3-1.2-7.42-4.664-10.742L92.464-22.69c-2.12-2.049-3.039-3.039-3.039-5.936v-6.431c0-2.12.495-3.392,1.837-3.392s1.908,1.272,1.908,3.392v10.6h7.844Z" transform="translate(1488 653)"/>
      <path id="Pfad_222" data-name="Pfad 222" d="M14.347-16.976v-3.392H5.938V-41H15.2v-3.321H1.98V7.97H5.938V-16.976ZM38.3-34.573c0-6.29-3.039-10.247-8.692-10.247-5.724,0-8.692,3.958-8.692,10.247V-1.711c0,6.219,2.968,10.176,8.692,10.176,5.654,0,8.692-3.958,8.692-10.176ZM24.877-1.641V-34.714c0-4.311,1.484-7.067,4.735-7.067,3.18,0,4.664,2.756,4.664,7.067V-1.641c0,4.311-1.484,7.067-4.664,7.067C26.361,5.426,24.877,2.67,24.877-1.641ZM45.23-44.325V-1.711c0,6.219,2.9,10.176,8.551,10.176,5.724,0,8.551-3.958,8.551-10.176V-44.325H58.374V-1.641c0,4.311-1.343,7.067-4.594,7.067-3.18,0-4.594-2.756-4.594-7.067V-44.325Zm29.116,0H69.611V7.97H73V-35.068h.141L82.9,7.97h3.6v-52.3H83.109v39.01h-.141Zm36.819,10.247c0-6.29-3.039-10.247-8.622-10.247H93.992V7.97h8.551c5.583,0,8.622-3.958,8.622-10.247ZM97.949,4.861V-41.216h4.594c3.039,0,4.664,2.685,4.664,7V-2.136c0,4.311-1.625,7-4.664,7Zm25.441-49.186-7,52.3h3.533l1.979-15.689h7.35L131.235,7.97h3.816l-7-52.3ZM124.8-30.969l.707-6.29h.141l.636,6.29,2.544,19.858h-6.5ZM154.132-41v-3.321H136.888V-41h6.643V7.97h3.958V-41ZM160.139,7.97H164.1v-52.3h-3.958ZM188.76-34.573c0-6.29-3.039-10.247-8.692-10.247-5.724,0-8.692,3.958-8.692,10.247V-1.711c0,6.219,2.968,10.176,8.692,10.176,5.654,0,8.692-3.958,8.692-10.176ZM175.333-1.641V-34.714c0-4.311,1.484-7.067,4.735-7.067,3.18,0,4.664,2.756,4.664,7.067V-1.641c0,4.311-1.484,7.067-4.664,7.067C176.817,5.426,175.333,2.67,175.333-1.641Zm25.3-42.684H195.9V7.97h3.392V-35.068h.141L209.184,7.97h3.6v-52.3H209.4v39.01h-.141Z" transform="translate(1603.737 653.011)"/>
      <path id="Pfad_224" data-name="Pfad 224" d="M.27,1.847H1.709l1.519-3.5H7.783l1.542,3.5h1.829L5.724-10.3H5.676ZM3.8-2.963,5.493-6.85,7.211-2.963Zm10.065,4.81h1.67V-3.789h5.335l-.8-1.312h-4.54V-8.528h5.406V-9.84H13.865Zm9.954,0h1.67V-3.328l5.525,5.176h2.234L27.651-3.4c1.558-.231,3.26-1.089,3.26-3.164,0-1.646-1.089-3.276-4.293-3.276h-2.8ZM25.488-4.5V-8.584h1.105c1.519,0,2.544.644,2.544,2.043,0,1.375-1.026,2.035-2.544,2.035ZM35.514,1.847h1.67V-9.84h-1.67Zm11.7.223a6.764,6.764,0,0,0,2.616-.5l.692-1.678h-.04a6.6,6.6,0,0,1-3.315.875,4.535,4.535,0,0,1-4.762-4.818,4.445,4.445,0,0,1,4.762-4.707,6.6,6.6,0,0,1,3.315.875h.04l-.692-1.678a6.764,6.764,0,0,0-2.616-.5c-3.554,0-6.575,2.162-6.575,6.122S43.576,2.07,47.217,2.07Zm5.056-.223h1.439l1.519-3.5h4.556l1.542,3.5h1.829L57.727-10.3h-.048Zm3.53-4.81L57.5-6.85l1.717,3.888ZM68.158,2.07c2.4,0,4.381-1.185,4.381-3.4,0-1.988-1.3-2.918-3.252-3.474l-1-.286c-1.2-.342-1.892-.9-1.892-1.9,0-1.2.906-1.765,2.3-1.765a6.368,6.368,0,0,1,3.124.875h.032L71.2-9.617a6.771,6.771,0,0,0-2.632-.445c-2.067,0-3.856,1.256-3.856,3.164,0,1.837,1.089,2.87,3.029,3.427l.994.286c1.248.358,2.107.97,2.107,2.083,0,1.185-1,1.86-2.52,1.86A7.4,7.4,0,0,1,64.382-.458H64.35l.739,1.908A7.894,7.894,0,0,0,68.158,2.07Zm11.91-.223h1.391v-8.1l4.516,5.247h.032l4.2-5.231V1.847h1.67V-10.388h-.032L86.2-3.289l-6.09-7.1h-.04Zm21.386.223A5.907,5.907,0,0,0,107.584-4a5.907,5.907,0,0,0-6.13-6.066A5.9,5.9,0,0,0,95.332-4,5.9,5.9,0,0,0,101.454,2.07Zm.413-1.3C99.284.989,97.36-.8,97.113-3.623s1.344-4.913,3.927-5.136,4.516,1.566,4.762,4.389S104.451.543,101.867.766Zm11.711,1.3c2.4,0,4.381-1.185,4.381-3.4,0-1.988-1.3-2.918-3.252-3.474l-1-.286c-1.2-.342-1.892-.9-1.892-1.9,0-1.2.906-1.765,2.3-1.765a6.368,6.368,0,0,1,3.124.875h.032l-.644-1.733a6.771,6.771,0,0,0-2.632-.445c-2.067,0-3.856,1.256-3.856,3.164,0,1.837,1.089,2.87,3.029,3.427l.994.286c1.248.358,2.107.97,2.107,2.083,0,1.185-1,1.86-2.52,1.86A7.4,7.4,0,0,1,109.8-.458h-.032l.739,1.908A7.894,7.894,0,0,0,113.578,2.07Zm9.882-.223h1.67V-8.528h3.808V-9.84h-9.286v1.312h3.808Zm12.514,0h6.837V.536h-5.168V-3.789h5.1l-.8-1.312h-4.3V-8.528h5.168V-9.84h-6.837Zm10.5,0h1.391V-6.5l8.4,8.888h.04V-9.832h-1.391v8.284l-8.4-8.841h-.04Zm13.961,0h3.013c4.548,0,7.028-2.393,7.028-5.844S168-9.84,163.451-9.84h-3.013Zm1.67-1.272V-8.568h1.344c3.546,0,5.255,1.813,5.255,4.571S167,.575,163.451.575Zm9.525,1.272h1.439l1.519-3.5h4.556l1.542,3.5h1.829L177.086-10.3h-.048Zm3.53-4.81,1.693-3.888,1.717,3.888Zm10.057,4.81h1.391V-6.5l8.4,8.888h.04V-9.832h-1.391v8.284l-8.4-8.841h-.04Zm19.86.223a10.67,10.67,0,0,0,4.253-1.049v-5.8h-5.653l-.8,1.312h4.77V.241a6.628,6.628,0,0,1-2.624.525,4.53,4.53,0,0,1-4.762-4.818c0-3.148,2.2-4.707,5.08-4.707a7.171,7.171,0,0,1,3.474.875h.04l-.692-1.678a7.561,7.561,0,0,0-2.775-.5c-3.848,0-6.893,2.162-6.893,6.122S201.525,2.07,205.079,2.07Zm8.4-.223h6.837V.536h-5.168V-3.789h5.1l-.8-1.312h-4.3V-8.528h5.168V-9.84h-6.837Zm10.51,0h1.67V-3.328l5.525,5.176h2.234l-5.6-5.247c1.558-.231,3.26-1.089,3.26-3.164,0-1.646-1.089-3.276-4.293-3.276h-2.8Zm1.67-6.352V-8.584h1.105c1.519,0,2.544.644,2.544,2.043,0,1.375-1.026,2.035-2.544,2.035Zm10.033,6.352h6.837V.536h-5.168V-3.789h5.1l-.8-1.312h-4.3V-8.528h5.168V-9.84h-6.837Zm10.5,0H249.2c4.548,0,7.028-2.393,7.028-5.844S253.751-9.84,249.2-9.84H246.19Zm1.67-1.272V-8.568H249.2c3.546,0,5.255,1.813,5.255,4.571S252.749.575,249.2.575ZM266.551,2.07c2.4,0,4.381-1.185,4.381-3.4,0-1.988-1.3-2.918-3.252-3.474l-1-.286c-1.2-.342-1.892-.9-1.892-1.9,0-1.2.906-1.765,2.3-1.765a6.368,6.368,0,0,1,3.124.875h.032L269.6-9.617a6.771,6.771,0,0,0-2.632-.445c-2.067,0-3.856,1.256-3.856,3.164,0,1.837,1.089,2.87,3.029,3.427l.994.286c1.248.358,2.107.97,2.107,2.083,0,1.185-1,1.86-2.52,1.86a7.4,7.4,0,0,1-3.943-1.216h-.032l.739,1.908A7.894,7.894,0,0,0,266.551,2.07Zm7.752-.223h1.67V-2.931h2.043c1.709,0,4.174-.978,4.174-3.474,0-1.646-1.089-3.435-4.293-3.435H274.3Zm1.67-6.034v-4.4h1.9c1.511,0,2.544.8,2.544,2.2,0,1.375-1.034,2.194-2.544,2.194Zm9.008,6.034h6.837V.536h-5.168V-3.789h5.1l-.8-1.312h-4.3V-8.528h5.168V-9.84H284.98ZM301.3,2.07a6.764,6.764,0,0,0,2.616-.5l.692-1.678h-.04a6.6,6.6,0,0,1-3.315.875,4.535,4.535,0,0,1-4.762-4.818,4.445,4.445,0,0,1,4.762-4.707,6.6,6.6,0,0,1,3.315.875h.04l-.692-1.678a6.764,6.764,0,0,0-2.616-.5c-3.554,0-6.575,2.162-6.575,6.122S297.66,2.07,301.3,2.07Zm6.567-.223h1.67V-9.84h-1.67Zm5.812,0h6.837V.536H315.35V-3.789h5.1l-.8-1.312h-4.3V-8.528h5.168V-9.84H313.68Zm12.911.223c2.4,0,4.381-1.185,4.381-3.4,0-1.988-1.3-2.918-3.252-3.474l-1-.286c-1.2-.342-1.892-.9-1.892-1.9,0-1.2.906-1.765,2.3-1.765a6.367,6.367,0,0,1,3.124.875h.032l-.644-1.733a6.771,6.771,0,0,0-2.632-.445c-2.067,0-3.856,1.256-3.856,3.164,0,1.837,1.089,2.87,3.029,3.427l.994.286c1.248.358,2.107.97,2.107,2.083,0,1.185-1,1.86-2.52,1.86a7.4,7.4,0,0,1-3.943-1.216h-.032l.739,1.908A7.894,7.894,0,0,0,326.592,2.07Z" transform="translate(1488.005 685.046)"/>
    </g>
    <g id="Gruppe_345" data-name="Gruppe 345" transform="translate(1090.827 -124.987)">
      <path id="Pfad_205" d="M471.143,750.156a3.518,3.518,0,0,0-.216-.829c-.037-.124-.143-.155-.276-.151-.414.008-.829-.015-1.243,0a6.569,6.569,0,0,0-1.852.215,20.73,20.73,0,0,1-3.4.918c-1.129.176-2.259.344-3.392.489a.712.712,0,0,1-.781-.448,2.028,2.028,0,0,1-.284-.843.909.909,0,0,0-.081-.265,5.755,5.755,0,0,0-1.1-1.753c-.311-.371-.646-.725-.93-1.117-.431-.6-.829-1.225-1.233-1.844a3.81,3.81,0,0,0-1.316-1.148,2.171,2.171,0,0,1-.642-.512,4.684,4.684,0,0,1-.823-1.929,3.238,3.238,0,0,0-.4-1.21c-.257-.4-.524-.792-.812-1.167-.481-.622-.97-1.237-1.479-1.834a1.458,1.458,0,0,1-.348-1.225,3.775,3.775,0,0,0-.932-2.953c-.4-.481-.769-.984-1.148-1.479a1.1,1.1,0,0,1-.2-.646,7.247,7.247,0,0,0-.162-1.233.882.882,0,0,0-.332-.5.712.712,0,0,1-.3-.394,4.536,4.536,0,0,0-1.007-1.722,3.282,3.282,0,0,1-.365-.462,5.86,5.86,0,0,1-.959-1.834,1.786,1.786,0,0,1-.025-.68,6.763,6.763,0,0,1,.669-1.7,2.675,2.675,0,0,0,.1-2.155c-.178-.439-.367-.874-.547-1.314-.114-.276-.218-.557-.34-.831a1.53,1.53,0,0,0-1.169-.986,11.356,11.356,0,0,1-2.6-.7,3.408,3.408,0,0,0-1.312-.263,2.838,2.838,0,0,0-1.444.435,4.278,4.278,0,0,1-1.3.356c-.029.008-.066-.01-.1-.012-.162-.015-.321-.027-.483-.039-.4-.029-.8-.064-1.208-.081a2.524,2.524,0,0,0-.437.058l-1.162-.485a1.083,1.083,0,0,1-.334-.027,6.856,6.856,0,0,1-1.243-.516,18.238,18.238,0,0,0-2.934-1.231c-.332-.135-.69-.2-1.013-.35s-.694-.205-1.026-.365a2.827,2.827,0,0,0-2.13-.015,3.369,3.369,0,0,1-.949.251,3.188,3.188,0,0,0-.23.352.764.764,0,0,0-.108.354,4.067,4.067,0,0,0,.1.825,3.41,3.41,0,0,1,.079.992,1.393,1.393,0,0,1-.356.847.728.728,0,0,1-1.009.039c-.282-.22-.533-.479-.8-.719a1.455,1.455,0,0,0-.81-.433,6.987,6.987,0,0,1-1.477-.344,1.435,1.435,0,0,1-.806-.663c-.106-.18-.191-.373-.311-.541a1.5,1.5,0,0,0-1.113-.74c-.226-.017-.448-.056-.678-.085a2.146,2.146,0,0,1,0-.284.381.381,0,0,0-.261-.439,3.47,3.47,0,0,0-.794-.228,9.6,9.6,0,0,0-1.245-.054,1.085,1.085,0,0,1-.781-.307c-.288-.265-.6-.5-.908-.748-.135-.11-.269-.22-.408-.321a.305.305,0,0,1-.1-.4,2.508,2.508,0,0,0-.162-2.263c-.056-.089-.089-.191-.149-.276a.288.288,0,0,1,.039-.4,1.675,1.675,0,0,0,.414-.821.967.967,0,0,0-.412-1.115,5.123,5.123,0,0,0-2.244-.86,1.917,1.917,0,0,0-1.053.126c-.2.093-.348.2-.346.46a.7.7,0,0,1-.168.518c-.2-.205-.035-.472-.164-.684a1.574,1.574,0,0,0-.2-.017,3.667,3.667,0,0,1-1.026-.141,5.405,5.405,0,0,0-.986-.186c-.551-.029-1.106-.006-1.66,0a13.853,13.853,0,0,1-1.552-.058,8.616,8.616,0,0,0-1.347.031c-.309.023-.615.1-.924.141a16.109,16.109,0,0,0-2.317.41,3.186,3.186,0,0,1-1.562.274,1.022,1.022,0,0,0-.537.106c-.3.12-.584.276-.874.416-.416.2-.827.414-1.247.607a.921.921,0,0,1-.744.017,2.273,2.273,0,0,0-.945-.162c-.508.008-1.017.023-1.523-.01-.282-.019-.555-.151-.837-.191a.9.9,0,0,1-.7-.427c-.124-.207-.267-.4-.39-.611a.544.544,0,0,0-.816-.211,4.1,4.1,0,0,0-.64.671c-.253.313-.475.653-.713.978a6.157,6.157,0,0,0-.777,1.225,11.13,11.13,0,0,1-.659,1.216.9.9,0,0,1-.273.255c-.133.091-.282.16-.421.245l-.079.048c-.081.05-.164.1-.247.147l.213-.01c.153-.008.307-.015.462-.017.106,0,.211,0,.319,0q.631,0,1.272.05a29.357,29.357,0,0,1,4.846.85c.284.07.564.143.841.215,3.025.8,5.99,1.819,9.2,2.812-.029-.056-.06-.11-.089-.164l.145-.019c1.482-.182,2.762-.416,4.053-.47.922-.039,1.863-.122,2.806-.176,2.495-.143,4.983-.087,7.061,1.465a78.446,78.446,0,0,1,6.229,5.079,41.626,41.626,0,0,1,3.042,3.1c.112.128.224.257.334.387a30.145,30.145,0,0,1,3.9,5.725c2.54,4.9,4.863,9.993,8.023,14.465.114.162.228.321.344.481l.035.048c.05.068.1.137.147.207,4.846,6.722,7.157,14.233,8.86,22.923-2.905-1-5.454-1.836-7.973-2.764-.479-.176-1.146-.675-1.185-1.075q-.009-.087-.019-.168a.892.892,0,0,1-.29-.491,4.3,4.3,0,0,0-.143-.789c-.738-.984-2.155-.238-3.083.124a40.317,40.317,0,0,0-5.079,2.946,6.333,6.333,0,0,1-2.31.995c-1.687.176-3.508-.87-5.054.775-.222.238-1.446-.108-1.908-.52-3.738-3.328-8.336-4.254-13.064-4.925a3.365,3.365,0,0,1-1.492-.607,3.974,3.974,0,0,1,1.067,2.024c.033.269.091.537.139.812a1.849,1.849,0,0,0,.754-.251.658.658,0,0,0,.371-.468,2.1,2.1,0,0,0,.05-.284,5.775,5.775,0,0,1,.684.006c.332.039.659.11.986.178a.805.805,0,0,1,.416.143,9.881,9.881,0,0,1,1.007.992,2.478,2.478,0,0,1,.458,1.384c.008.429.012.856,0,1.285a3.128,3.128,0,0,1-.083.651c-.1.41-.23.816-.344,1.225a4.08,4.08,0,0,1-.182.665,10.5,10.5,0,0,1-.605,1.086,2.08,2.08,0,0,0,.452,2.76,4.679,4.679,0,0,1,.435.448c.615.678,1.1,1.457,1.643,2.186.124.166.259.323.39.487.058-.066.108-.122.184-.211.137.174.263.321.373.477.195.284.4.568.57.864a4.8,4.8,0,0,1,.46,1.482c.05.236.091.45-.12.6a1.368,1.368,0,0,0,.719.959.421.421,0,0,1,.222.491.569.569,0,0,0,.106.64c.066.093.108.205.176.3a1.411,1.411,0,0,1,.2,1.283,2.272,2.272,0,0,1-.066.232,2.543,2.543,0,0,0-.137,1.092,2.746,2.746,0,0,0,0,.346,8.308,8.308,0,0,0,.17,1.092,1.793,1.793,0,0,0,.356.58c.149.189.338.346.5.528a.871.871,0,0,1,.162.3,1.589,1.589,0,0,1-.232,1.262,12.155,12.155,0,0,1-1,1.531,4.5,4.5,0,0,0-.729,1.444c-.164.539-.329,1.08-.474,1.625q-.224.855-.4,1.72c-.158.756-.3,1.519-.439,2.279-.048.257-.081.52-.114.781a.335.335,0,0,0,.008.17c.112.263.224.526.352.783.1.195.216.385.4.4.128.269.224.5.346.715.232.419.487.823.715,1.245-.085-.205-.166-.414-.242-.63-1.5-4.229-.259-7.919,2.6-11.125,1.873-2.1,3.566-2.145,5.518-.559,0,.866.029,1.589-.008,2.31-.031.584.07,1.378-.259,1.711-1.3,1.314-1.724,2.692-.52,4.188,1.334,1.658,3.375,2.308,5.062,1.231a10.773,10.773,0,0,0,4.076-4.552,27.962,27.962,0,0,0,1.053-19.179c-.182-.607-.323-1.227-.582-2.219a22.53,22.53,0,0,0,16.241,2.853c.684,9.216-2.008,17.241-6.875,24.552-3.97,5.959-9.37,9.589-16.931,8.454A11.056,11.056,0,0,1,413.4,799.4a.349.349,0,0,1,0,.265.883.883,0,0,0-.031.879,5.12,5.12,0,0,1,.39,1.249.67.67,0,0,0,.651.609.283.283,0,0,1,.172.073,1.77,1.77,0,0,0,.58.562.423.423,0,0,1,.145.189,1.3,1.3,0,0,1,.1.877,3.106,3.106,0,0,0-.075.891,3.3,3.3,0,0,1-.019,1.367.1.1,0,0,0,0,.035c.023.273.041.549.073.823.062.549.126,1.1.2,1.649a6.25,6.25,0,0,1,.147.92,3.508,3.508,0,0,0,.046.646,4.584,4.584,0,0,0,.151.713c.108.336.07.744.452.957.039.023.048.1.075.153.218.431.419.874.663,1.289a2.694,2.694,0,0,0,.852.943c.261.164.5.315.491.678,0,.089.091.182.153.267.075.1.16.2.242.294a.584.584,0,0,1,.131.58c-.081.238.1.533-.155.727-.006,0,0,.023,0,.035a2.855,2.855,0,0,0,.166.7,4.428,4.428,0,0,1,.3.955.753.753,0,0,1-.22.82,2.218,2.218,0,0,0-.191.2.6.6,0,0,0-.077.738c.1.18.213.356.327.53a9.218,9.218,0,0,1,.785,1.218,3.3,3.3,0,0,0,.669.908.863.863,0,0,1,.062.083c.329.5.9.439,1.376.541a1.823,1.823,0,0,0,.777-.141c.812-.224,1.622-.464,2.435-.692a4.475,4.475,0,0,1,1.817-.089,4.8,4.8,0,0,0,1.036.006c.8-.073,1.587-.3,2.4-.3a2.931,2.931,0,0,0,.843-.176,5.074,5.074,0,0,0,1.54-.613,2.573,2.573,0,0,1,.549-.29,3.175,3.175,0,0,0,1.231-.669c.249-.257.483-.528.725-.792.18-.2.356-.394.545-.58a4.5,4.5,0,0,1,1.247-.8.923.923,0,0,0,.421-.34c.259-.528.731-.885,1.03-1.382.267-.441.634-.823.889-1.27a1.418,1.418,0,0,1,.816-.7,1.9,1.9,0,0,0,1.175-1.152,7.661,7.661,0,0,0,.352-1.193c.116-.512.133-.547.638-.559a.723.723,0,0,0,.686-.325,1.526,1.526,0,0,0,.116-.6c.008-.205-.068-.419-.043-.62a6.172,6.172,0,0,1,.224-1.063.785.785,0,0,1,.329-.334,10.265,10.265,0,0,0,1.019-.651,5.057,5.057,0,0,0,.833-.949,4.945,4.945,0,0,0,.5-.984,4.462,4.462,0,0,0,.271-1.807,5.435,5.435,0,0,0-.445-2.18.294.294,0,0,1-.01-.128c0-.135.012-.267,0-.4-.029-.3-.091-.595-.1-.893-.006-.238.056-.479.064-.719a.34.34,0,0,1,.17-.311,4.259,4.259,0,0,0,.649-.46c.6-.572,1.185-1.167,1.782-1.745a1.328,1.328,0,0,1,.39-.273,10.336,10.336,0,0,1,1.193-.445,9.2,9.2,0,0,0,2.634-1.295,3.337,3.337,0,0,0,1.225-1.8,1.3,1.3,0,0,0,.044-.274c.048-.425.106-.847.141-1.274a10.8,10.8,0,0,0,.064-1.9c-.058-.609-.073-1.222-.081-1.836a2.448,2.448,0,0,1,.085-.856,6.348,6.348,0,0,0,.369-1.79,1.445,1.445,0,0,0-.609-1.421c-.1-.064-.176-.151-.273-.213a.649.649,0,0,1-.3-.777,1.206,1.206,0,0,0-.054-.68c-.1-.3-.168-.6-.273-.9a.545.545,0,0,1,.052-.493c.139-.253.259-.516.4-.767a.741.741,0,0,0-.064-.831c-.319-.522-.593-1.071-.885-1.608a.52.52,0,0,1,.019-.528c.257-.479.5-.964.76-1.44q.786-1.448,1.581-2.893a1.7,1.7,0,0,1,.265-.39c.28-.276.58-.528.864-.8a3.685,3.685,0,0,0,.978-1.063,5.3,5.3,0,0,1,1.131-1.569c.675-.663,1.361-1.32,2.062-1.958.808-.74,1.511-1.587,2.368-2.279.908-.734,1.788-1.5,2.675-2.261a2.459,2.459,0,0,0,.45-.479,38.607,38.607,0,0,0,2.238-3.991c.052-.1.07-.218.124-.317q.712-1.33,1.43-2.656c.39-.723.785-1.442,1.162-2.172a3.253,3.253,0,0,0,.464-1.334C471.189,751.588,471.176,750.871,471.143,750.156Zm-24.86,12.567c3.348-.3,6.693-.657,10.047-.866.5-.031,1.038.613,1.558.945-.47.323-.914.864-1.419.935-2.8.381-5.607.733-8.425.887-.663.035-1.37-.746-2.058-1.15C446.086,763.222,446.183,762.974,446.283,762.723Zm11.829,4.681c-4.992,1.633-9.906,3.792-15.037,4.643-6.388,1.063-11.815-1.606-16.294-6.941,2.124-1.266,3.839-2.372,5.644-3.3a1.909,1.909,0,0,1,1.767.207c3.56,3.893,8.193,4.43,13.017,4.179,3.141-.164,6.262-.7,9.4-.959a13.565,13.565,0,0,1,2.905.373c.01.245.023.489.035.736A5.656,5.656,0,0,1,458.112,767.4Z" transform="translate(-94.002)" fill="#bd8100"/>
    </g>
  </g>
</svg>
